<svg width="48" height="48" viewBox="0 0 48 48" xmlns="http://www.w3.org/2000/svg">
  <rect x="24" y="17" width="1" height="1" fill="currentColor"/>
  <rect x="21" y="18" width="1" height="1" fill="currentColor"/>
  <rect x="27" y="18" width="1" height="1" fill="currentColor"/>
  <rect x="18" y="20" width="1" height="1" fill="currentColor"/>
  <rect x="23" y="21" width="1" height="1" fill="currentColor"/>
  <rect x="24" y="21" width="1" height="1" fill="currentColor"/>
  <rect x="29" y="21" width="1" height="1" fill="currentColor"/>
  <rect x="22" y="22" width="1" height="1" fill="currentColor"/>
  <rect x="23" y="22" width="1" height="1" fill="currentColor"/>
  <rect x="24" y="22" width="1" height="1" fill="currentColor"/>
  <rect x="25" y="22" width="1" height="1" fill="currentColor"/>
  <rect x="17" y="23" width="1" height="1" fill="currentColor"/>
  <rect x="21" y="23" width="1" height="1" fill="currentColor"/>
  <rect x="22" y="23" width="1" height="1" fill="currentColor"/>
  <rect x="23" y="23" width="1" height="1" fill="currentColor"/>
  <rect x="24" y="23" width="1" height="1" fill="currentColor"/>
  <rect x="25" y="23" width="1" height="1" fill="currentColor"/>
  <rect x="26" y="23" width="1" height="1" fill="currentColor"/>
  <rect x="21" y="24" width="1" height="1" fill="currentColor"/>
  <rect x="22" y="24" width="1" height="1" fill="currentColor"/>
  <rect x="23" y="24" width="1" height="1" fill="currentColor"/>
  <rect x="24" y="24" width="1" height="1" fill="currentColor"/>
  <rect x="25" y="24" width="1" height="1" fill="currentColor"/>
  <rect x="26" y="24" width="1" height="1" fill="currentColor"/>
  <rect x="30" y="24" width="1" height="1" fill="currentColor"/>
  <rect x="22" y="25" width="1" height="1" fill="currentColor"/>
  <rect x="23" y="25" width="1" height="1" fill="currentColor"/>
  <rect x="24" y="25" width="1" height="1" fill="currentColor"/>
  <rect x="25" y="25" width="1" height="1" fill="currentColor"/>
  <rect x="18" y="26" width="1" height="1" fill="currentColor"/>
  <rect x="23" y="26" width="1" height="1" fill="currentColor"/>
  <rect x="24" y="26" width="1" height="1" fill="currentColor"/>
  <rect x="29" y="27" width="1" height="1" fill="currentColor"/>
  <rect x="20" y="29" width="1" height="1" fill="currentColor"/>
  <rect x="26" y="29" width="1" height="1" fill="currentColor"/>
  <rect x="23" y="30" width="1" height="1" fill="currentColor"/>
</svg>
